<svg xmlns="http://www.w3.org/2000/svg" viewBox="0 0 40 40">
  <defs>
    <mask id="ig">
      <rect fill="#fff" width="40" height="40"/>
      <svg x='4' y='4'>
        <path fill="#000" d="M11.47 5A6.5 6.5 0 0 0 5 11.47v9.06A6.5 6.5 0 0 0 11.47 27h9.06A6.5 6.5 0 0 0 27 20.53v-9.06A6.5 6.5 0 0 0 20.53 5Zm0 2h9.06C23 7 25 9 25 11.47v9.06C25 23 23 25 20.53 25h-9.06C9 25 7 23 7 20.53v-9.06C7 9 9 7 11.47 7ZM21.9 9.19a.9.9 0 1 0 0 1.81.9.9 0 1 0 0-1.81ZM16 10c-3.3 0-6 2.7-6 6s2.7 6 6 6 6-2.7 6-6-2.7-6-6-6Zm0 2c2.22 0 4 1.78 4 4 0 2.22-1.78 4-4 4-2.22 0-4-1.78-4-4 0-2.22 1.78-4 4-4Z"/>
      </svg>
    </mask>
  </defs>
  <rect fill="#000" width="40" height="40" mask="url(#ig)"/>
</svg>
